<svg width="16356" height="4273" viewBox="0 0 16356 4273" fill="none" xmlns="http://www.w3.org/2000/svg">
<path d="M3772.42 1878.83C3640.62 1867.84 3508.82 1878.83 3366.03 1878.83C3366.03 1856.86 3388 1834.89 3388 1812.93C3442.91 1681.12 3508.82 1549.32 3530.78 1406.54C3563.73 1186.87 3464.88 1066.05 3245.21 1066.05C2816.86 1066.05 2399.49 1066.05 1971.13 1066.05C1927.2 1066.05 1894.25 1077.03 1883.27 1131.95C1861.3 1197.85 1828.35 1252.77 1795.4 1318.67C1718.51 1494.4 1630.65 1659.16 1553.76 1834.89C1542.78 1867.84 1542.78 1878.83 1586.71 1878.83C1641.63 1878.83 1696.55 1878.83 1740.48 1878.83C2278.67 1878.83 2827.84 1878.83 3366.03 1878.83C3234.23 2175.38 3102.43 2471.94 2970.63 2779.47C2783.91 3218.81 2597.19 3647.17 2399.49 4086.51C2377.52 4130.45 2388.5 4141.43 2432.44 4141.43C2564.24 4141.43 2685.06 4141.43 2816.86 4141.43C3058.5 4141.43 3245.21 4020.61 3344.06 3789.96C3563.73 3284.72 3783.4 2768.49 4003.07 2263.25C4090.94 2065.55 3981.1 1900.79 3772.42 1878.83Z" fill="white"/>
<path d="M708.039 2384.08C708.039 2384.08 708.039 2373.1 708.039 2362.11C960.658 1779.99 1213.28 1186.88 1476.88 604.752C1542.78 450.983 1608.68 286.23 1685.57 132.461C1553.76 132.461 1421.96 132.461 1301.14 132.461C1037.54 132.461 806.889 297.214 697.055 538.851C532.303 912.29 378.535 1285.73 213.784 1659.17C158.866 1790.97 103.949 1922.77 38.0478 2043.59C-27.8529 2164.41 5.09744 2153.43 38.0478 2197.36C92.9651 2351.13 213.783 2384.08 367.551 2395.06C477.386 2395.06 598.205 2395.06 708.039 2395.06C642.138 2548.83 565.254 2691.62 543.287 2856.37C521.32 3054.07 576.239 3207.84 839.842 3207.84C1268.2 3207.84 1685.57 3207.84 2113.92 3207.84C2146.87 3207.84 2168.84 3207.84 2190.81 3163.91C2289.66 2944.24 2388.51 2735.55 2487.36 2515.88C2509.33 2482.93 2531.29 2439 2531.29 2395.06H708.039V2384.08Z" fill="white"/>
<path d="M7231.47 132L5749.1 4096.8L5866.63 4140.75L7349.01 175.944L7231.47 132Z" fill="white"/>
<path d="M9423 1050C9353.67 1050 9296 1037 9250 1011C9204.67 984.333 9170.67 947.333 9148 900C9125.33 852 9114 796 9114 732C9114 662 9124.67 601 9146 549C9167.33 497 9200.67 457 9246 429C9291.33 400.333 9350 386 9422 386C9459.33 386 9493 388.667 9523 394C9553.67 399.333 9582.33 406.667 9609 416V488C9582.33 478 9554 470.333 9524 465C9494 459 9462.33 456 9429 456C9371 456 9325 467 9291 489C9257 511 9232.67 542.667 9218 584C9203.33 625.333 9196 674.667 9196 732C9196 811.333 9214.67 872.667 9252 916C9290 958.667 9349.67 980 9431 980C9461 980 9491.33 977.667 9522 973C9553.33 968.333 9582.33 961 9609 951V1024C9583 1032 9554.67 1038.33 9524 1043C9494 1047.67 9460.33 1050 9423 1050ZM9902.2 518L9973.2 350H10047.2L9968.2 518H9902.2ZM9875.2 1050C9845.2 1050 9817.54 1044.67 9792.2 1034C9766.87 1023.33 9746.54 1007.67 9731.2 987C9715.87 965.667 9708.2 939 9708.2 907C9708.2 863.667 9722.54 828.333 9751.2 801C9779.87 773 9826.54 759 9891.2 759H10056.2V730C10056.2 704 10052.5 683.333 10045.2 668C10038.5 652.667 10025.5 641.667 10006.2 635C9986.87 628.333 9958.54 625 9921.2 625C9892.54 625 9864.87 627.333 9838.2 632C9811.54 636.667 9786.54 643 9763.2 651V583C9784.54 575 9809.54 568.667 9838.2 564C9867.54 558.667 9898.87 556 9932.2 556C9999.54 556 10049.9 569.667 10083.2 597C10117.2 624.333 10134.2 668.667 10134.2 730V1040H10065.2L10059.2 986C10038.5 1007.33 10013.5 1023.33 9984.2 1034C9954.87 1044.67 9918.54 1050 9875.2 1050ZM9896.2 983C9930.87 983 9961.54 977 9988.2 965C10014.9 952.333 10037.5 935.333 10056.2 914V822H9893.2C9855.87 822 9829.2 829 9813.2 843C9797.2 857 9789.2 878.333 9789.2 907C9789.2 935.667 9798.87 955.667 9818.2 967C9837.54 977.667 9863.54 983 9896.2 983ZM10371.7 1050C10339.7 1050 10314.4 1041.67 10295.7 1025C10277.7 1007.67 10268.7 978.667 10268.7 938V366H10350.7V929C10350.7 949 10354 962.667 10360.7 970C10367.4 977.333 10377.7 981 10391.7 981C10407 981 10422 979 10436.7 975V1040C10426 1044 10415.4 1046.67 10404.7 1048C10394 1049.33 10383 1050 10371.7 1050ZM10754.9 1050C10672.2 1050 10610.9 1028.67 10570.9 986C10530.9 942.667 10510.9 881.667 10510.9 803C10510.9 719.667 10533.5 657.667 10578.9 617C10624.2 576.333 10685.2 556 10761.9 556C10793.2 556 10819.2 558.333 10839.9 563C10860.5 567 10880.5 573.667 10899.9 583V648C10863.9 630.667 10822.9 622 10776.9 622C10718.2 622 10672.9 636 10640.9 664C10608.9 691.333 10592.9 737.667 10592.9 803C10592.9 865.667 10606.9 911.667 10634.9 941C10662.9 969.667 10709.2 984 10773.9 984C10819.9 984 10862.2 975.333 10900.9 958V1024C10880.2 1032.67 10857.9 1039 10833.9 1043C10810.5 1047.67 10784.2 1050 10754.9 1050ZM11159.3 1050C11102.6 1050 11059.6 1034.33 11030.3 1003C11001.6 971.667 10987.3 926 10987.3 866V566H11069.3V869C11069.3 908.333 11078.9 937.333 11098.3 956C11118.3 974.667 11148.9 984 11190.3 984C11219.6 984 11247.3 978.667 11273.3 968C11299.3 957.333 11321.6 942.667 11340.3 924V566H11422.3V1040H11348.3L11343.3 986C11320.6 1004.67 11293.6 1020 11262.3 1032C11230.9 1044 11196.6 1050 11159.3 1050ZM11665.1 1050C11633.1 1050 11607.7 1041.67 11589.1 1025C11571.1 1007.67 11562.1 978.667 11562.1 938V366H11644.1V929C11644.1 949 11647.4 962.667 11654.1 970C11660.7 977.333 11671.1 981 11685.1 981C11700.4 981 11715.4 979 11730.1 975V1040C11719.4 1044 11708.7 1046.67 11698.1 1048C11687.4 1049.33 11676.4 1050 11665.1 1050ZM12041.2 1050C11958.6 1050 11898.2 1029 11860.2 987C11822.9 944.333 11804.2 883 11804.2 803C11804.2 723.667 11823.2 662.667 11861.2 620C11899.2 577.333 11959.2 556 12041.2 556C12123.2 556 12183.2 577.333 12221.2 620C12259.2 662.667 12278.2 723.667 12278.2 803C12278.2 883 12259.6 944.333 12222.2 987C12184.9 1029 12124.6 1050 12041.2 1050ZM12041.2 980C12097.9 980 12137.9 966 12161.2 938C12184.6 909.333 12196.2 864.333 12196.2 803C12196.2 741.667 12184.2 697 12160.2 669C12136.9 640.333 12097.2 626 12041.2 626C11985.2 626 11945.2 640.333 11921.2 669C11897.9 697 11886.2 741.667 11886.2 803C11886.2 864.333 11897.9 909.333 11921.2 938C11944.6 966 11984.6 980 12041.2 980ZM12821.9 1050C12755.2 1050 12702.9 1031.67 12664.9 995C12626.9 957.667 12607.9 896 12607.9 810C12607.9 724.667 12627.5 661 12666.9 619C12706.9 577 12760.2 556 12826.9 556C12886.2 556 12937.5 571 12980.9 601V366H13062.9V1040H12992.9L12986.9 990C12964.9 1010.67 12940.5 1026 12913.9 1036C12887.9 1045.33 12857.2 1050 12821.9 1050ZM12842.9 984C12870.2 984 12895.5 979.333 12918.9 970C12942.2 960.667 12962.9 946.333 12980.9 927V669C12964.2 654.333 12944.5 643 12921.9 635C12899.2 626.333 12873.5 622 12844.9 622C12792.2 622 12753.2 637.333 12727.9 668C12702.5 698 12689.9 745.333 12689.9 810C12689.9 872 12701.5 916.667 12724.9 944C12748.2 970.667 12787.5 984 12842.9 984ZM13425.8 1050C13341.1 1050 13277.8 1029.67 13235.8 989C13193.8 948.333 13172.8 885.667 13172.8 801C13172.8 725 13190.8 665.333 13226.8 622C13263.4 578 13321.1 556 13399.8 556C13446.4 556 13484.8 564.667 13514.8 582C13545.4 598.667 13568.1 622 13582.8 652C13598.1 681.333 13605.8 714.667 13605.8 752V841H13254.8C13257.4 877 13265.1 905.333 13277.8 926C13291.1 946.667 13310.8 961.667 13336.8 971C13363.4 979.667 13398.4 984 13441.8 984C13490.4 984 13535.1 975.667 13575.8 959V1023C13555.1 1031.67 13531.8 1038.33 13505.8 1043C13480.4 1047.67 13453.8 1050 13425.8 1050ZM13254.8 782H13532.8V743C13532.8 704.333 13522.4 674.667 13501.8 654C13481.8 632.667 13448.4 622 13401.8 622C13345.1 622 13306.4 635.333 13285.8 662C13265.1 688.667 13254.8 728.667 13254.8 782ZM9134 2415V1771H9569V1836H9216V2061H9533V2125H9216V2351H9569V2415H9134ZM9688.17 2415V1941H9762.17L9767.17 1995C9789.83 1976.33 9816.17 1961 9846.17 1949C9876.83 1937 9911.83 1931 9951.17 1931C10011.2 1931 10054.8 1945 10082.2 1973C10109.5 2001 10123.2 2045 10123.2 2105V2415H10041.2V2108C10041.2 2066.67 10032.8 2038 10016.2 2022C9999.5 2005.33 9967.5 1997 9920.17 1997C9890.83 1997 9863.17 2002.33 9837.17 2013C9811.17 2023.67 9788.83 2038.33 9770.17 2057V2415H9688.17ZM10710.3 2657C10673 2657 10644.3 2647 10624.3 2627C10605 2607 10595.3 2575.67 10595.3 2533V2380C10552 2410 10499.3 2425 10437.3 2425C10370.7 2425 10318 2407.33 10279.3 2372C10241.3 2336.67 10222.3 2276.33 10222.3 2191C10222.3 2105 10241.3 2040.33 10279.3 1997C10317.3 1953 10369.7 1931 10436.3 1931C10471.7 1931 10502.3 1936 10528.3 1946C10555 1955.33 10579.3 1970.33 10601.3 1991L10607.3 1941H10677.3V2529C10677.3 2551.67 10681 2567 10688.3 2575C10695.7 2583.67 10709.7 2588 10730.3 2588C10736.3 2588 10743.7 2587.33 10752.3 2586C10761 2584.67 10768 2583.33 10773.3 2582V2647C10755.3 2653.67 10734.3 2657 10710.3 2657ZM10459.3 2359C10488 2359 10513.7 2355 10536.3 2347C10559 2338.33 10578.7 2326.67 10595.3 2312V2054C10577.3 2034.67 10556.7 2020.33 10533.3 2011C10510 2001.67 10484.7 1997 10457.3 1997C10402 1997 10362.7 2014 10339.3 2048C10316 2081.33 10304.3 2129 10304.3 2191C10304.3 2255.67 10317 2300 10342.3 2324C10367.7 2347.33 10406.7 2359 10459.3 2359ZM10969.4 2425C10912.7 2425 10869.7 2409.33 10840.4 2378C10811.7 2346.67 10797.4 2301 10797.4 2241V1941H10879.4V2244C10879.4 2283.33 10889 2312.33 10908.4 2331C10928.4 2349.67 10959 2359 11000.4 2359C11029.7 2359 11057.4 2353.67 11083.4 2343C11109.4 2332.33 11131.7 2317.67 11150.4 2299V1941H11232.4V2415H11158.4L11153.4 2361C11130.7 2379.67 11103.7 2395 11072.4 2407C11041 2419 11006.7 2425 10969.4 2425ZM11504.5 2425C11474.5 2425 11446.8 2419.67 11421.5 2409C11396.2 2398.33 11375.8 2382.67 11360.5 2362C11345.2 2340.67 11337.5 2314 11337.5 2282C11337.5 2238.67 11351.8 2203.33 11380.5 2176C11409.2 2148 11455.8 2134 11520.5 2134H11685.5V2105C11685.5 2079 11681.8 2058.33 11674.5 2043C11667.8 2027.67 11654.8 2016.67 11635.5 2010C11616.2 2003.33 11587.8 2000 11550.5 2000C11521.8 2000 11494.2 2002.33 11467.5 2007C11440.8 2011.67 11415.8 2018 11392.5 2026V1958C11413.8 1950 11438.8 1943.67 11467.5 1939C11496.8 1933.67 11528.2 1931 11561.5 1931C11628.8 1931 11679.2 1944.67 11712.5 1972C11746.5 1999.33 11763.5 2043.67 11763.5 2105V2415H11694.5L11688.5 2361C11667.8 2382.33 11642.8 2398.33 11613.5 2409C11584.2 2419.67 11547.8 2425 11504.5 2425ZM11525.5 2358C11560.2 2358 11590.8 2352 11617.5 2340C11644.2 2327.33 11666.8 2310.33 11685.5 2289V2197H11522.5C11485.2 2197 11458.5 2204 11442.5 2218C11426.5 2232 11418.5 2253.33 11418.5 2282C11418.5 2310.67 11428.2 2330.67 11447.5 2342C11466.8 2352.67 11492.8 2358 11525.5 2358ZM12092 2425C12025.3 2425 11973 2406.67 11935 2370C11897 2332.67 11878 2271 11878 2185C11878 2099.67 11897.7 2036 11937 1994C11977 1952 12030.3 1931 12097 1931C12156.3 1931 12207.7 1946 12251 1976V1741H12333V2415H12263L12257 2365C12235 2385.67 12210.7 2401 12184 2411C12158 2420.33 12127.3 2425 12092 2425ZM12113 2359C12140.3 2359 12165.7 2354.33 12189 2345C12212.3 2335.67 12233 2321.33 12251 2302V2044C12234.3 2029.33 12214.7 2018 12192 2010C12169.3 2001.33 12143.7 1997 12115 1997C12062.3 1997 12023.3 2012.33 11998 2043C11972.7 2073 11960 2120.33 11960 2185C11960 2247 11971.7 2291.67 11995 2319C12018.3 2345.67 12057.7 2359 12113 2359ZM12472.7 2415V1941H12546.7L12552.7 2001C12576 1985.67 12603.3 1971.67 12634.7 1959C12666.7 1946.33 12698 1937 12728.7 1931V1995C12710 1999 12689.7 2004.67 12667.7 2012C12645.7 2018.67 12624.7 2026.33 12604.7 2035C12584.7 2043.67 12568 2052.67 12554.7 2062V2415H12472.7ZM12934.6 2425C12904.6 2425 12876.9 2419.67 12851.6 2409C12826.2 2398.33 12805.9 2382.67 12790.6 2362C12775.2 2340.67 12767.6 2314 12767.6 2282C12767.6 2238.67 12781.9 2203.33 12810.6 2176C12839.2 2148 12885.9 2134 12950.6 2134H13115.6V2105C13115.6 2079 13111.9 2058.33 13104.6 2043C13097.9 2027.67 13084.9 2016.67 13065.6 2010C13046.2 2003.33 13017.9 2000 12980.6 2000C12951.9 2000 12924.2 2002.33 12897.6 2007C12870.9 2011.67 12845.9 2018 12822.6 2026V1958C12843.9 1950 12868.9 1943.67 12897.6 1939C12926.9 1933.67 12958.2 1931 12991.6 1931C13058.9 1931 13109.2 1944.67 13142.6 1972C13176.6 1999.33 13193.6 2043.67 13193.6 2105V2415H13124.6L13118.6 2361C13097.9 2382.33 13072.9 2398.33 13043.6 2409C13014.2 2419.67 12977.9 2425 12934.6 2425ZM12955.6 2358C12990.2 2358 13020.9 2352 13047.6 2340C13074.2 2327.33 13096.9 2310.33 13115.6 2289V2197H12952.6C12915.2 2197 12888.6 2204 12872.6 2218C12856.6 2232 12848.6 2253.33 12848.6 2282C12848.6 2310.67 12858.2 2330.67 12877.6 2342C12896.9 2352.67 12922.9 2358 12955.6 2358ZM13328.1 2415V1941H13402.1L13407.1 1995C13432.4 1975 13459.1 1959.33 13487.1 1948C13515.7 1936.67 13546.4 1931 13579.1 1931C13614.4 1931 13641.7 1936.67 13661.1 1948C13681.1 1959.33 13695.7 1975.33 13705.1 1996C13727.7 1977.33 13753.7 1962 13783.1 1950C13812.4 1937.33 13847.4 1931 13888.1 1931C13942.1 1931 13982.1 1945 14008.1 1973C14034.7 2000.33 14048.1 2042.67 14048.1 2100V2415H13967.1V2108C13967.1 2066 13958.1 2037 13940.1 2021C13922.7 2005 13894.4 1997 13855.1 1997C13829.1 1997 13804.1 2001.33 13780.1 2010C13756.7 2018.67 13736.7 2032 13720.1 2050C13724.1 2066.67 13726.1 2086 13726.1 2108V2415H13649.1V2110C13649.1 2070 13642.4 2041.33 13629.1 2024C13615.7 2006 13589.4 1997 13550.1 1997C13523.4 1997 13497.7 2003 13473.1 2015C13449.1 2026.33 13427.7 2040.67 13409.1 2058V2415H13328.1ZM14400.4 2425C14315.7 2425 14252.4 2404.67 14210.4 2364C14168.4 2323.33 14147.4 2260.67 14147.4 2176C14147.4 2100 14165.4 2040.33 14201.4 1997C14238.1 1953 14295.7 1931 14374.4 1931C14421.1 1931 14459.4 1939.67 14489.4 1957C14520.1 1973.67 14542.7 1997 14557.4 2027C14572.7 2056.33 14580.4 2089.67 14580.4 2127V2216H14229.4C14232.1 2252 14239.7 2280.33 14252.4 2301C14265.7 2321.67 14285.4 2336.67 14311.4 2346C14338.1 2354.67 14373.1 2359 14416.4 2359C14465.1 2359 14509.7 2350.67 14550.4 2334V2398C14529.7 2406.67 14506.4 2413.33 14480.4 2418C14455.1 2422.67 14428.4 2425 14400.4 2425ZM14229.4 2157H14507.4V2118C14507.4 2079.33 14497.1 2049.67 14476.4 2029C14456.4 2007.67 14423.1 1997 14376.4 1997C14319.7 1997 14281.1 2010.33 14260.4 2037C14239.7 2063.67 14229.4 2103.67 14229.4 2157ZM14700.1 2415V1941H14774.1L14779.1 1995C14801.7 1976.33 14828.1 1961 14858.1 1949C14888.7 1937 14923.7 1931 14963.1 1931C15023.1 1931 15066.7 1945 15094.1 1973C15121.4 2001 15135.1 2045 15135.1 2105V2415H15053.1V2108C15053.1 2066.67 15044.7 2038 15028.1 2022C15011.4 2005.33 14979.4 1997 14932.1 1997C14902.7 1997 14875.1 2002.33 14849.1 2013C14823.1 2023.67 14800.7 2038.33 14782.1 2057V2415H14700.1ZM15442.9 2425C15396.2 2425 15360.9 2412.67 15336.9 2388C15313.5 2362.67 15301.9 2327.67 15301.9 2283V2006H15229.9V1941H15301.9V1824L15383.9 1799V1941H15514.9L15509.9 2006H15383.9V2279C15383.9 2307.67 15390.2 2328.33 15402.9 2341C15416.2 2353 15438.9 2359 15470.9 2359C15488.2 2359 15507.2 2355.67 15527.9 2349V2411C15503.2 2420.33 15474.9 2425 15442.9 2425ZM15838.9 2425C15756.2 2425 15695.9 2404 15657.9 2362C15620.5 2319.33 15601.9 2258 15601.9 2178C15601.9 2098.67 15620.9 2037.67 15658.9 1995C15696.9 1952.33 15756.9 1931 15838.9 1931C15920.9 1931 15980.9 1952.33 16018.9 1995C16056.9 2037.67 16075.9 2098.67 16075.9 2178C16075.9 2258 16057.2 2319.33 16019.9 2362C15982.5 2404 15922.2 2425 15838.9 2425ZM15838.9 2355C15895.5 2355 15935.5 2341 15958.9 2313C15982.2 2284.33 15993.9 2239.33 15993.9 2178C15993.9 2116.67 15981.9 2072 15957.9 2044C15934.5 2015.33 15894.9 2001 15838.9 2001C15782.9 2001 15742.9 2015.33 15718.9 2044C15695.5 2072 15683.9 2116.67 15683.9 2178C15683.9 2239.33 15695.5 2284.33 15718.9 2313C15742.2 2341 15782.2 2355 15838.9 2355ZM9308 3790V3211H9094V3146H9604V3211H9390V3790H9308ZM9618.83 3790V3316H9692.83L9698.83 3376C9722.16 3360.67 9749.5 3346.67 9780.83 3334C9812.83 3321.33 9844.16 3312 9874.83 3306V3370C9856.16 3374 9835.83 3379.67 9813.83 3387C9791.83 3393.67 9770.83 3401.33 9750.83 3410C9730.83 3418.67 9714.16 3427.67 9700.83 3437V3790H9618.83ZM10080.7 3800C10050.7 3800 10023.1 3794.67 9997.74 3784C9972.4 3773.33 9952.07 3757.67 9936.74 3737C9921.4 3715.67 9913.74 3689 9913.74 3657C9913.74 3613.67 9928.07 3578.33 9956.74 3551C9985.4 3523 10032.1 3509 10096.7 3509H10261.7V3480C10261.7 3454 10258.1 3433.33 10250.7 3418C10244.1 3402.67 10231.1 3391.67 10211.7 3385C10192.4 3378.33 10164.1 3375 10126.7 3375C10098.1 3375 10070.4 3377.33 10043.7 3382C10017.1 3386.67 9992.07 3393 9968.74 3401V3333C9990.07 3325 10015.1 3318.67 10043.7 3314C10073.1 3308.67 10104.4 3306 10137.7 3306C10205.1 3306 10255.4 3319.67 10288.7 3347C10322.7 3374.33 10339.7 3418.67 10339.7 3480V3790H10270.7L10264.7 3736C10244.1 3757.33 10219.1 3773.33 10189.7 3784C10160.4 3794.67 10124.1 3800 10080.7 3800ZM10101.7 3733C10136.4 3733 10167.1 3727 10193.7 3715C10220.4 3702.33 10243.1 3685.33 10261.7 3664V3572H10098.7C10061.4 3572 10034.7 3579 10018.7 3593C10002.7 3607 9994.74 3628.33 9994.74 3657C9994.74 3685.67 10004.4 3705.67 10023.7 3717C10043.1 3727.67 10069.1 3733 10101.7 3733ZM10715.2 3800C10679.9 3800 10648.9 3795.33 10622.2 3786C10596.2 3776 10572.2 3760.67 10550.2 3740L10544.2 3790H10474.2V3116H10556.2V3351C10599.6 3321 10652.2 3306 10714.2 3306C10781.6 3306 10834.2 3325.33 10872.2 3364C10910.2 3402 10929.2 3463.67 10929.2 3549C10929.2 3635 10910.2 3698.33 10872.2 3739C10834.2 3779.67 10781.9 3800 10715.2 3800ZM10694.2 3734C10749.6 3734 10788.9 3718.67 10812.2 3688C10835.6 3657.33 10847.2 3611 10847.2 3549C10847.2 3484.33 10834.6 3438.67 10809.2 3412C10784.6 3385.33 10745.6 3372 10692.2 3372C10663.6 3372 10637.9 3376.33 10615.2 3385C10592.6 3393 10572.9 3404.33 10556.2 3419V3677C10574.2 3696.33 10594.9 3710.67 10618.2 3720C10641.6 3729.33 10666.9 3734 10694.2 3734ZM11191 3800C11161 3800 11133.4 3794.67 11108 3784C11082.7 3773.33 11062.4 3757.67 11047 3737C11031.7 3715.67 11024 3689 11024 3657C11024 3613.67 11038.4 3578.33 11067 3551C11095.7 3523 11142.4 3509 11207 3509H11372V3480C11372 3454 11368.4 3433.33 11361 3418C11354.4 3402.67 11341.4 3391.67 11322 3385C11302.7 3378.33 11274.4 3375 11237 3375C11208.4 3375 11180.7 3377.33 11154 3382C11127.4 3386.67 11102.4 3393 11079 3401V3333C11100.4 3325 11125.4 3318.67 11154 3314C11183.4 3308.67 11214.7 3306 11248 3306C11315.4 3306 11365.7 3319.67 11399 3347C11433 3374.33 11450 3418.67 11450 3480V3790H11381L11375 3736C11354.4 3757.33 11329.4 3773.33 11300 3784C11270.7 3794.67 11234.4 3800 11191 3800ZM11212 3733C11246.7 3733 11277.4 3727 11304 3715C11330.7 3702.33 11353.4 3685.33 11372 3664V3572H11209C11171.7 3572 11145 3579 11129 3593C11113 3607 11105 3628.33 11105 3657C11105 3685.67 11114.7 3705.67 11134 3717C11153.4 3727.67 11179.4 3733 11212 3733ZM11687.5 3800C11655.5 3800 11630.2 3791.67 11611.5 3775C11593.5 3757.67 11584.5 3728.67 11584.5 3688V3116H11666.5V3679C11666.5 3699 11669.8 3712.67 11676.5 3720C11683.2 3727.33 11693.5 3731 11707.5 3731C11722.8 3731 11737.8 3729 11752.5 3725V3790C11741.8 3794 11731.2 3796.67 11720.5 3798C11709.8 3799.33 11698.8 3800 11687.5 3800ZM11846.7 3790V3116H11928.7V3367C11950.7 3349 11976.4 3334.33 12005.7 3323C12035.7 3311.67 12070.4 3306 12109.7 3306C12167 3306 12210 3320 12238.7 3348C12267.4 3376 12281.7 3420 12281.7 3480V3790H12199.7V3483C12199.7 3441.67 12190.4 3413 12171.7 3397C12153.7 3380.33 12123.7 3372 12081.7 3372C12055 3372 12027.4 3378 11998.7 3390C11970.7 3401.33 11947.4 3416.33 11928.7 3435V3790H11846.7ZM12431.2 3205V3130H12522.2V3205H12431.2ZM12439.2 3790V3381H12366.2L12374.2 3316H12521.2V3790H12439.2ZM12811.1 3800C12780.4 3800 12751.1 3798 12723.1 3794C12695.7 3790 12672.7 3784.67 12654.1 3778V3706C12676.7 3714 12700.4 3720 12725.1 3724C12750.4 3728 12775.4 3730 12800.1 3730C12842.1 3730 12872.1 3725.67 12890.1 3717C12908.1 3707.67 12917.1 3690.67 12917.1 3666C12917.1 3648 12912.1 3634.33 12902.1 3625C12892.7 3615.67 12878.1 3607.33 12858.1 3600C12838.7 3592.67 12813.7 3584 12783.1 3574C12755.7 3564.67 12731.4 3555 12710.1 3545C12688.7 3535 12672.1 3521.67 12660.1 3505C12648.1 3487.67 12642.1 3464.67 12642.1 3436C12642.1 3394 12656.7 3362 12686.1 3340C12715.4 3317.33 12762.7 3306 12828.1 3306C12853.4 3306 12877.7 3308 12901.1 3312C12924.4 3315.33 12944.7 3319.67 12962.1 3325V3397C12920.1 3383 12879.7 3376 12841.1 3376C12799.7 3376 12769.7 3380.33 12751.1 3389C12733.1 3397 12724.1 3412.33 12724.1 3435C12724.1 3450.33 12728.1 3462.67 12736.1 3472C12744.7 3480.67 12757.7 3488.33 12775.1 3495C12793.1 3501 12816.1 3508.67 12844.1 3518C12880.7 3529.33 12910.4 3541 12933.1 3553C12955.7 3565 12972.4 3579.67 12983.1 3597C12993.7 3614.33 12999.1 3637 12999.1 3665C12999.1 3711.67 12982.7 3746 12950.1 3768C12917.4 3789.33 12871.1 3800 12811.1 3800ZM13276.9 3800C13230.2 3800 13194.9 3787.67 13170.9 3763C13147.6 3737.67 13135.9 3702.67 13135.9 3658V3381H13063.9V3316H13135.9V3199L13217.9 3174V3316H13348.9L13343.9 3381H13217.9V3654C13217.9 3682.67 13224.2 3703.33 13236.9 3716C13250.2 3728 13272.9 3734 13304.9 3734C13322.2 3734 13341.2 3730.67 13361.9 3724V3786C13337.2 3795.33 13308.9 3800 13276.9 3800ZM13602.9 3800C13572.9 3800 13545.3 3794.67 13519.9 3784C13494.6 3773.33 13474.3 3757.67 13458.9 3737C13443.6 3715.67 13435.9 3689 13435.9 3657C13435.9 3613.67 13450.3 3578.33 13478.9 3551C13507.6 3523 13554.3 3509 13618.9 3509H13783.9V3480C13783.9 3454 13780.3 3433.33 13772.9 3418C13766.3 3402.67 13753.3 3391.67 13733.9 3385C13714.6 3378.33 13686.3 3375 13648.9 3375C13620.3 3375 13592.6 3377.33 13565.9 3382C13539.3 3386.67 13514.3 3393 13490.9 3401V3333C13512.3 3325 13537.3 3318.67 13565.9 3314C13595.3 3308.67 13626.6 3306 13659.9 3306C13727.3 3306 13777.6 3319.67 13810.9 3347C13844.9 3374.33 13861.9 3418.67 13861.9 3480V3790H13792.9L13786.9 3736C13766.3 3757.33 13741.3 3773.33 13711.9 3784C13682.6 3794.67 13646.3 3800 13602.9 3800ZM13623.9 3733C13658.6 3733 13689.3 3727 13715.9 3715C13742.6 3702.33 13765.3 3685.33 13783.9 3664V3572H13620.9C13583.6 3572 13556.9 3579 13540.9 3593C13524.9 3607 13516.9 3628.33 13516.9 3657C13516.9 3685.67 13526.6 3705.67 13545.9 3717C13565.3 3727.67 13591.3 3733 13623.9 3733Z" fill="white"/>
</svg>
